<?xml version="1.0" encoding="iso-8859-1"?>
<!-- Uploaded to: SVG Repo, www.svgrepo.com, Generator: SVG Repo Mixer Tools -->
<svg height="800px" width="800px" version="1.1" id="Layer_1" xmlns="http://www.w3.org/2000/svg" xmlns:xlink="http://www.w3.org/1999/xlink" 
	 viewBox="0 0 512 512" xml:space="preserve">
<g transform="translate(1 1)">
	<path style="fill:#FFDD09;" d="M502.467,255c0,136.533-110.933,247.467-247.467,247.467S7.533,391.533,7.533,255
		S118.467,7.533,255,7.533S502.467,118.467,502.467,255"/>
	<path style="fill:#FD9808;" d="M255,7.533c-4.267,0-8.533,0-12.8,0C372.76,14.36,476.867,122.733,476.867,255
		S372.76,495.64,242.2,502.467c4.267,0,8.533,0,12.8,0c136.533,0,247.467-110.933,247.467-247.467S391.533,7.533,255,7.533"/>
	<path style="fill:#FFFFFF;" d="M255,7.533c4.267,0,8.533,0,12.8,0C137.24,14.36,33.133,122.733,33.133,255
		S137.24,495.64,267.8,502.467c-4.267,0-8.533,0-12.8,0C118.467,502.467,7.533,391.533,7.533,255S118.467,7.533,255,7.533"/>
	<path style="fill:#1CD759;" d="M280.6,255c0,14.507-11.093,25.6-25.6,25.6c-14.507,0-25.6-11.093-25.6-25.6
		c0-14.507,11.093-25.6,25.6-25.6C269.507,229.4,280.6,240.493,280.6,255"/>
	<g>
		<path style="fill:#FCC309;" d="M212.333,161.133c0,28.16-23.04,51.2-51.2,51.2s-51.2-23.04-51.2-51.2s23.04-51.2,51.2-51.2
			S212.333,132.973,212.333,161.133"/>
		<path style="fill:#FCC309;" d="M400.067,161.133c0,28.16-23.04,51.2-51.2,51.2c-28.16,0-51.2-23.04-51.2-51.2
			s23.04-51.2,51.2-51.2C377.027,109.933,400.067,132.973,400.067,161.133"/>
		<path style="fill:#FCC309;" d="M400.067,348.867c0,28.16-23.04,51.2-51.2,51.2c-28.16,0-51.2-23.04-51.2-51.2
			c0-28.16,23.04-51.2,51.2-51.2C377.027,297.667,400.067,320.707,400.067,348.867"/>
		<path style="fill:#FCC309;" d="M212.333,348.867c0,28.16-23.04,51.2-51.2,51.2s-51.2-23.04-51.2-51.2
			c0-28.16,23.04-51.2,51.2-51.2S212.333,320.707,212.333,348.867"/>
	</g>
	<g>
		<path style="fill:#33A9F8;" d="M387.267,195.267c-14.507-31.573-40.107-58.027-72.533-72.533
			c-10.24,9.387-17.067,23.04-17.067,38.4c0,28.16,23.04,51.2,51.2,51.2C364.227,212.333,377.88,205.507,387.267,195.267"/>
		<path style="fill:#33A9F8;" d="M122.733,195.267c14.507-31.573,40.107-58.027,72.533-72.533c10.24,9.387,17.067,23.04,17.067,38.4
			c0,28.16-23.04,51.2-51.2,51.2C145.773,212.333,132.12,205.507,122.733,195.267"/>
		<path style="fill:#33A9F8;" d="M387.267,314.733c-14.507,31.573-40.107,58.027-72.533,72.533
			c-10.24-9.387-17.067-23.04-17.067-38.4c0-28.16,23.04-51.2,51.2-51.2C364.227,297.667,377.88,304.493,387.267,314.733"/>
		<path style="fill:#33A9F8;" d="M122.733,314.733c14.507,31.573,40.107,58.027,72.533,72.533c10.24-9.387,17.067-23.04,17.067-38.4
			c0-28.16-23.04-51.2-51.2-51.2C145.773,297.667,132.12,304.493,122.733,314.733"/>
	</g>
	<g>
		<path style="fill:#54C9FD;" d="M357.4,211.48c-11.093-26.453-32.427-47.787-58.88-58.88c-0.853,2.56-0.853,5.973-0.853,8.533
			c0,28.16,23.04,51.2,51.2,51.2C351.427,212.333,354.84,212.333,357.4,211.48"/>
		<path style="fill:#54C9FD;" d="M152.6,211.48c11.093-26.453,32.427-47.787,58.88-58.88c0.853,2.56,0.853,5.12,0.853,8.533
			c0,28.16-23.04,51.2-51.2,51.2C158.573,212.333,155.16,212.333,152.6,211.48"/>
		<path style="fill:#54C9FD;" d="M357.4,298.52c-11.093,26.453-32.427,47.787-58.88,58.88c-0.853-2.56-0.853-5.973-0.853-8.533
			c0-28.16,23.04-51.2,51.2-51.2C351.427,297.667,354.84,297.667,357.4,298.52"/>
		<path style="fill:#54C9FD;" d="M152.6,298.52c11.093,26.453,32.427,47.787,58.88,58.88c0.853-2.56,0.853-5.12,0.853-8.533
			c0-28.16-23.04-51.2-51.2-51.2C158.573,297.667,155.16,297.667,152.6,298.52"/>
	</g>
	<path d="M255,511C114.2,511-1,395.8-1,255S114.2-1,255-1s256,115.2,256,256S395.8,511,255,511z M255,16.067
		C123.587,16.067,16.067,123.587,16.067,255S123.587,493.933,255,493.933S493.933,386.413,493.933,255S386.413,16.067,255,16.067z"
		/>
	<path d="M161.133,220.867c-33.28,0-59.733-26.453-59.733-59.733s26.453-59.733,59.733-59.733s59.733,26.453,59.733,59.733
		S194.413,220.867,161.133,220.867z M161.133,118.467c-23.893,0-42.667,18.773-42.667,42.667S137.24,203.8,161.133,203.8
		s42.667-18.773,42.667-42.667S185.027,118.467,161.133,118.467z"/>
	<path d="M348.867,220.867c-33.28,0-59.733-26.453-59.733-59.733s26.453-59.733,59.733-59.733s59.733,26.453,59.733,59.733
		S382.147,220.867,348.867,220.867z M348.867,118.467c-23.893,0-42.667,18.773-42.667,42.667s18.773,42.667,42.667,42.667
		c23.893,0,42.667-18.773,42.667-42.667S372.76,118.467,348.867,118.467z"/>
	<path d="M348.867,408.6c-33.28,0-59.733-26.453-59.733-59.733s26.453-59.733,59.733-59.733s59.733,26.453,59.733,59.733
		S382.147,408.6,348.867,408.6z M348.867,306.2c-23.893,0-42.667,18.773-42.667,42.667c0,23.893,18.773,42.667,42.667,42.667
		c23.893,0,42.667-18.773,42.667-42.667C391.533,324.973,372.76,306.2,348.867,306.2z"/>
	<path d="M161.133,408.6c-33.28,0-59.733-26.453-59.733-59.733s26.453-59.733,59.733-59.733s59.733,26.453,59.733,59.733
		S194.413,408.6,161.133,408.6z M161.133,306.2c-23.893,0-42.667,18.773-42.667,42.667c0,23.893,18.773,42.667,42.667,42.667
		S203.8,372.76,203.8,348.867C203.8,324.973,185.027,306.2,161.133,306.2z"/>
	<path d="M255,289.133c-18.773,0-34.133-15.36-34.133-34.133s15.36-34.133,34.133-34.133s34.133,15.36,34.133,34.133
		S273.773,289.133,255,289.133z M255,237.933c-9.387,0-17.067,7.68-17.067,17.067s7.68,17.067,17.067,17.067
		s17.067-7.68,17.067-17.067S264.387,237.933,255,237.933z"/>
	<path d="M348.867,220.867c-33.28,0-59.733-26.453-59.733-59.733c0-17.067,7.68-33.28,19.627-44.373
		c2.56-2.56,5.973-2.56,9.387-1.707c34.133,15.36,61.44,42.667,76.8,76.8c1.707,3.413,0.853,6.827-1.707,9.387
		C382.147,213.187,365.933,220.867,348.867,220.867z M316.44,132.973c-6.827,7.68-10.24,17.92-10.24,28.16
		c0,23.893,18.773,42.667,42.667,42.667c10.24,0,20.48-3.413,28.16-10.24C363.373,167.107,342.893,146.627,316.44,132.973z"/>
	<path d="M348.867,220.867c-33.28,0-59.733-26.453-59.733-59.733c0-3.413,0-5.973,0.853-9.387c0-2.56,1.707-5.12,4.267-5.973
		s5.12-1.707,7.68,0c29.013,11.947,51.2,34.987,63.147,63.147c0.853,2.56,0.853,5.12,0,7.68c-0.853,2.56-3.413,4.267-5.973,4.267
		C354.84,220.867,352.28,220.867,348.867,220.867z M306.2,166.253c2.56,19.627,17.92,34.133,36.693,36.693
		C334.36,188.44,321.56,175.64,306.2,166.253z"/>
	<path d="M161.133,220.867c-17.067,0-33.28-7.68-44.373-19.627c-2.56-2.56-2.56-5.973-1.707-9.387
		c15.36-34.133,42.667-61.44,76.8-76.8c3.413-1.707,6.827-0.853,9.387,1.707c11.947,11.093,19.627,27.307,19.627,44.373
		C220.867,194.413,194.413,220.867,161.133,220.867z M132.973,193.56c7.68,6.827,17.92,10.24,28.16,10.24
		c23.893,0,42.667-18.773,42.667-42.667c0-10.24-3.413-20.48-10.24-28.16C167.107,146.627,146.627,167.107,132.973,193.56z"/>
	<path d="M161.133,220.867c-3.413,0-5.973,0-9.387-0.853c-2.56,0-5.12-1.707-5.973-4.267s-1.707-5.12,0-7.68
		c11.947-29.013,34.987-51.2,63.147-63.147c2.56-0.853,5.12-0.853,7.68,0c2.56,0.853,4.267,3.413,4.267,5.973
		c0,4.267,0,6.827,0,10.24C220.867,194.413,194.413,220.867,161.133,220.867z M203.8,166.253
		c-15.36,8.533-28.16,21.333-36.693,36.693C185.88,201.24,201.24,185.88,203.8,166.253z"/>
	<path d="M314.733,395.8c-1.707,0-4.267-0.853-5.973-2.56c-11.947-11.093-19.627-27.307-19.627-44.373
		c0-33.28,26.453-59.733,59.733-59.733c17.067,0,33.28,7.68,44.373,19.627c2.56,2.56,2.56,5.973,1.707,9.387
		c-15.36,34.133-42.667,61.44-76.8,76.8C317.293,394.947,316.44,395.8,314.733,395.8z M348.867,306.2
		c-23.893,0-42.667,18.773-42.667,42.667c0,10.24,3.413,20.48,10.24,28.16c25.6-12.8,46.933-34.133,59.733-59.733
		C369.347,309.613,359.107,306.2,348.867,306.2z"/>
	<path d="M298.52,365.933c-1.707,0-2.56,0-4.267-0.853c-2.56-0.853-4.267-3.413-4.267-5.973c-0.853-4.267-0.853-6.827-0.853-10.24
		c0-33.28,26.453-59.733,59.733-59.733c2.56,0,5.973,0,9.387,0.853c2.56,0,5.12,1.707,5.973,4.267c0.853,2.56,1.707,5.12,0,7.68
		c-11.947,29.013-34.987,51.2-63.147,63.147C301.08,365.08,299.373,365.933,298.52,365.933z M343.747,306.2
		c-19.627,2.56-34.133,17.92-36.693,36.693C321.56,334.36,334.36,321.56,343.747,306.2z"/>
	<path d="M195.267,395.8c-0.853,0-2.56,0-3.413-0.853c-34.133-15.36-61.44-42.667-76.8-76.8c-1.707-3.413-0.853-6.827,1.707-9.387
		c11.093-11.947,27.307-19.627,44.373-19.627c33.28,0,59.733,26.453,59.733,59.733c0,17.067-7.68,33.28-19.627,44.373
		C199.533,394.947,196.973,395.8,195.267,395.8z M132.973,316.44c12.8,25.6,34.133,46.933,59.733,59.733
		c6.827-7.68,10.24-17.92,10.24-28.16c0-23.893-18.773-42.667-42.667-42.667C150.893,306.2,140.653,309.613,132.973,316.44z"/>
	<path d="M211.48,365.933c-0.853,0-2.56,0-3.413-0.853c-29.013-11.947-51.2-34.987-63.147-63.147c-0.853-2.56-0.853-5.12,0-7.68
		c0.853-2.56,3.413-4.267,5.973-4.267c4.267-0.853,7.68-0.853,10.24-0.853c33.28,0,59.733,26.453,59.733,59.733
		c0,3.413,0,5.973-0.853,9.387c0,2.56-1.707,5.12-4.267,5.973C214.04,365.08,213.187,365.933,211.48,365.933z M166.253,306.2
		c8.533,15.36,21.333,28.16,36.693,36.693C201.24,324.12,185.88,308.76,166.253,306.2z"/>
	<path d="M255,511H7.533C2.413,511-1,507.587-1,502.467c0-5.12,3.413-8.533,8.533-8.533H255c5.12,0,8.533,3.413,8.533,8.533
		C263.533,507.587,260.12,511,255,511z"/>
</g>
</svg>